<?xml version="1.0" encoding="utf-8"?>
<!-- Generator: Adobe Illustrator 27.4.0, SVG Export Plug-In . SVG Version: 6.00 Build 0)  -->
<svg version="1.1" xmlns="http://www.w3.org/2000/svg" xmlns:xlink="http://www.w3.org/1999/xlink" x="0px" y="0px"
	 viewBox="0 0 262 182.5" style="enable-background:new 0 0 262 182.5;" xml:space="preserve">
<style type="text/css">
	.st0{fill:none;stroke:#333333;stroke-width:2.3;stroke-miterlimit:10;}
	.st1{fill:#333333;}
	.st2{fill:none;stroke:#FFFFFF;stroke-width:2.3;stroke-miterlimit:10;}
	.st3{fill:#FFFFFF;}
</style>
<g id="logo_negro">
	<path class="st0" d="M-476.77,165.14c-3.66,0.56-7.41,0.86-11.23,0.86c-40.32,0-73-32.68-73-73s32.68-73,73-73
		c2.45,0,4.88,0.12,7.27,0.36"/>
	<path class="st0" d="M-412.93,138.65c-13.39,16.39-33.75,26.85-56.57,26.85c-40.32,0-73-32.68-73-73s32.68-73,73-73s73,32.68,73,73
		c0,1.85-0.07,3.69-0.2,5.5"/>
	<g>
		<path class="st1" d="M-491.38,70.99c0,1.93-0.31,3.71-0.92,5.32c-0.61,1.61-1.48,3-2.59,4.17c-1.12,1.16-2.46,2.07-4.02,2.71
			s-3.3,0.96-5.19,0.96s-3.62-0.32-5.18-0.96c-1.56-0.64-2.9-1.54-4.01-2.71s-1.98-2.55-2.59-4.17c-0.61-1.61-0.92-3.39-0.92-5.32
			c0-1.93,0.31-3.7,0.92-5.32c0.61-1.61,1.48-3.01,2.59-4.18c1.12-1.17,2.45-2.08,4.01-2.73c1.56-0.65,3.29-0.97,5.18-0.97
			s3.63,0.32,5.19,0.97s2.91,1.56,4.02,2.73c1.12,1.17,1.98,2.56,2.59,4.18C-491.69,67.28-491.38,69.05-491.38,70.99z
			 M-494.97,70.99c0-1.58-0.22-3.01-0.65-4.27c-0.43-1.26-1.04-2.33-1.84-3.2c-0.79-0.87-1.75-1.54-2.88-2.01
			c-1.13-0.47-2.39-0.7-3.78-0.7c-1.38,0-2.63,0.23-3.76,0.7c-1.13,0.47-2.09,1.14-2.89,2.01c-0.8,0.87-1.41,1.94-1.84,3.2
			c-0.43,1.26-0.65,2.68-0.65,4.27s0.22,3,0.65,4.26c0.43,1.25,1.05,2.32,1.84,3.19s1.76,1.54,2.89,2s2.38,0.69,3.76,0.69
			c1.39,0,2.65-0.23,3.78-0.69s2.09-1.13,2.88-2s1.4-1.93,1.84-3.19C-495.18,73.99-494.97,72.57-494.97,70.99z"/>
		<path class="st1" d="M-466.15,83.87h-2.7c-0.31,0-0.56-0.08-0.76-0.23s-0.34-0.35-0.43-0.59l-2.41-6.23h-11.57l-2.41,6.23
			c-0.08,0.22-0.23,0.41-0.43,0.58c-0.2,0.17-0.46,0.25-0.76,0.25h-2.7l10.31-25.79h3.55L-466.15,83.87z M-483.05,74.3h9.63
			l-4.05-10.49c-0.26-0.65-0.52-1.46-0.77-2.43c-0.13,0.49-0.26,0.94-0.39,1.36s-0.25,0.78-0.37,1.09L-483.05,74.3z"/>
		<path class="st1" d="M-441.98,83.87h-3.51V72.14h-13.9v11.74h-3.51V58.08h3.51v11.5h13.9v-11.5h3.51V83.87z"/>
		<path class="st1" d="M-494.12,127.07h-2.7c-0.31,0-0.56-0.08-0.76-0.23s-0.34-0.35-0.43-0.59l-2.41-6.23h-11.57l-2.41,6.23
			c-0.08,0.22-0.23,0.41-0.43,0.58c-0.2,0.17-0.46,0.25-0.76,0.25h-2.7l10.31-25.79h3.55L-494.12,127.07z M-511.02,117.5h9.63
			l-4.05-10.49c-0.26-0.65-0.52-1.46-0.77-2.43c-0.13,0.49-0.26,0.94-0.39,1.36s-0.25,0.78-0.37,1.09L-511.02,117.5z"/>
		<path class="st1" d="M-491.37,127.07v-18.23h1.84c0.35,0,0.59,0.07,0.72,0.2c0.13,0.13,0.22,0.36,0.27,0.68l0.22,2.84
			c0.62-1.27,1.4-2.27,2.31-2.98s2-1.07,3.23-1.07c0.5,0,0.96,0.06,1.37,0.17c0.41,0.11,0.79,0.27,1.13,0.48l-0.41,2.39
			c-0.08,0.3-0.27,0.45-0.56,0.45c-0.17,0-0.43-0.06-0.77-0.17c-0.35-0.11-0.83-0.17-1.46-0.17c-1.12,0-2.05,0.32-2.8,0.97
			s-1.38,1.59-1.88,2.83v11.61H-491.37z"/>
		<path class="st1" d="M-464.42,112.08c-0.1,0.13-0.19,0.23-0.29,0.31s-0.23,0.11-0.41,0.11c-0.18,0-0.38-0.07-0.58-0.23
			c-0.21-0.15-0.48-0.31-0.8-0.49c-0.32-0.18-0.72-0.35-1.18-0.5s-1.03-0.23-1.7-0.23c-0.89,0-1.67,0.16-2.36,0.48
			c-0.68,0.32-1.26,0.78-1.72,1.38s-0.81,1.33-1.04,2.18s-0.35,1.81-0.35,2.86c0,1.1,0.13,2.08,0.38,2.94
			c0.25,0.86,0.61,1.58,1.06,2.16s1.01,1.03,1.67,1.33c0.65,0.31,1.39,0.46,2.21,0.46c0.78,0,1.42-0.09,1.93-0.28
			c0.5-0.19,0.92-0.39,1.26-0.62s0.61-0.44,0.83-0.62c0.22-0.19,0.43-0.28,0.65-0.28c0.28,0,0.48,0.1,0.61,0.31l0.9,1.17
			c-0.79,0.97-1.78,1.68-2.97,2.13c-1.19,0.45-2.44,0.67-3.76,0.67c-1.14,0-2.2-0.21-3.18-0.63c-0.98-0.42-1.83-1.03-2.55-1.83
			c-0.72-0.8-1.29-1.78-1.7-2.94s-0.62-2.49-0.62-3.98c0-1.36,0.19-2.61,0.57-3.76c0.38-1.15,0.93-2.14,1.66-2.98
			c0.73-0.83,1.62-1.48,2.69-1.95c1.07-0.47,2.29-0.7,3.67-0.7c1.27,0,2.4,0.21,3.38,0.62s1.85,1,2.61,1.75L-464.42,112.08z"/>
		<path class="st1" d="M-460.05,127.07v-26.51h3.2v10.73c0.78-0.83,1.64-1.49,2.59-1.99s2.04-0.75,3.28-0.75c1,0,1.87,0.17,2.64,0.5
			s1.4,0.8,1.91,1.4c0.51,0.61,0.9,1.33,1.16,2.19c0.26,0.85,0.4,1.79,0.4,2.83v11.61h-3.2v-11.61c0-1.38-0.31-2.45-0.95-3.21
			c-0.63-0.76-1.59-1.14-2.89-1.14c-0.95,0-1.83,0.23-2.66,0.68c-0.82,0.46-1.58,1.07-2.28,1.85v13.43H-460.05z"/>
		<path class="st1" d="M-435.75,103.12c0,0.31-0.06,0.6-0.19,0.87s-0.29,0.51-0.5,0.72c-0.21,0.21-0.45,0.38-0.73,0.5
			c-0.28,0.12-0.57,0.18-0.88,0.18s-0.6-0.06-0.87-0.18c-0.27-0.12-0.51-0.28-0.72-0.5c-0.21-0.21-0.38-0.45-0.5-0.72
			c-0.12-0.27-0.18-0.56-0.18-0.87s0.06-0.61,0.18-0.89c0.12-0.28,0.28-0.53,0.5-0.74c0.21-0.21,0.45-0.38,0.72-0.5
			c0.27-0.12,0.56-0.18,0.87-0.18s0.61,0.06,0.88,0.18c0.28,0.12,0.52,0.29,0.73,0.5c0.21,0.21,0.38,0.46,0.5,0.74
			C-435.81,102.51-435.75,102.8-435.75,103.12z M-436.47,108.84v18.23h-3.2v-18.23H-436.47z"/>
		<path class="st1" d="M-425.29,127.36c-1.44,0-2.55-0.4-3.32-1.21c-0.77-0.8-1.16-1.96-1.16-3.47v-11.16h-2.2
			c-0.19,0-0.35-0.06-0.49-0.17c-0.13-0.11-0.2-0.29-0.2-0.53v-1.28l2.99-0.38l0.74-5.63c0.02-0.18,0.1-0.33,0.23-0.44
			c0.13-0.11,0.3-0.17,0.5-0.17h1.62v6.28h5.22v2.32h-5.22v10.94c0,0.77,0.19,1.34,0.56,1.71c0.37,0.37,0.85,0.56,1.44,0.56
			c0.34,0,0.63-0.04,0.87-0.14c0.25-0.09,0.46-0.19,0.64-0.3c0.18-0.11,0.33-0.21,0.46-0.3c0.12-0.09,0.24-0.14,0.33-0.14
			c0.17,0,0.32,0.1,0.45,0.31l0.94,1.53c-0.55,0.52-1.22,0.92-2,1.22C-423.66,127.22-424.46,127.36-425.29,127.36z"/>
		<path class="st1" d="M-410.17,108.55c1.09,0,2.1,0.18,3.02,0.55c0.92,0.37,1.72,0.89,2.39,1.58c0.67,0.69,1.2,1.54,1.58,2.56
			c0.38,1.01,0.57,2.17,0.57,3.46c0,0.5-0.05,0.84-0.16,1.01c-0.11,0.17-0.31,0.25-0.61,0.25h-12.13c0.02,1.15,0.18,2.15,0.47,3.01
			s0.68,1.56,1.19,2.13c0.5,0.57,1.1,1,1.8,1.28c0.7,0.28,1.48,0.42,2.34,0.42c0.8,0,1.5-0.09,2.08-0.28s1.08-0.39,1.5-0.6
			c0.42-0.22,0.77-0.42,1.05-0.6s0.53-0.28,0.73-0.28c0.26,0,0.47,0.1,0.61,0.31l0.9,1.17c-0.4,0.48-0.87,0.9-1.42,1.25
			c-0.55,0.35-1.14,0.65-1.77,0.87c-0.63,0.23-1.28,0.4-1.95,0.51c-0.67,0.11-1.34,0.17-2,0.17c-1.26,0-2.42-0.21-3.48-0.64
			s-1.98-1.05-2.75-1.87c-0.77-0.82-1.38-1.84-1.81-3.05c-0.43-1.21-0.65-2.6-0.65-4.18c0-1.27,0.2-2.46,0.58-3.56
			s0.95-2.06,1.68-2.87s1.63-1.45,2.68-1.91C-412.68,108.78-411.49,108.55-410.17,108.55z M-410.1,110.91
			c-1.55,0-2.77,0.45-3.65,1.34c-0.89,0.89-1.44,2.13-1.66,3.72h9.92c0-0.74-0.1-1.42-0.31-2.04s-0.5-1.15-0.9-1.6
			c-0.4-0.45-0.88-0.8-1.45-1.04C-408.71,111.03-409.37,110.91-410.1,110.91z"/>
		<path class="st1" d="M-386.09,112.08c-0.1,0.13-0.19,0.23-0.29,0.31c-0.1,0.07-0.23,0.11-0.41,0.11c-0.18,0-0.38-0.07-0.58-0.23
			c-0.21-0.15-0.48-0.31-0.8-0.49c-0.32-0.18-0.72-0.35-1.18-0.5s-1.03-0.23-1.7-0.23c-0.89,0-1.67,0.16-2.36,0.48
			c-0.68,0.32-1.26,0.78-1.72,1.38c-0.46,0.6-0.81,1.33-1.04,2.18c-0.23,0.85-0.35,1.81-0.35,2.86c0,1.1,0.13,2.08,0.38,2.94
			c0.25,0.86,0.61,1.58,1.06,2.16c0.46,0.58,1.01,1.03,1.67,1.33c0.65,0.31,1.39,0.46,2.2,0.46c0.78,0,1.42-0.09,1.93-0.28
			c0.5-0.19,0.92-0.39,1.26-0.62s0.61-0.44,0.83-0.62s0.43-0.28,0.65-0.28c0.28,0,0.48,0.1,0.61,0.31l0.9,1.17
			c-0.79,0.97-1.78,1.68-2.97,2.13c-1.19,0.45-2.44,0.67-3.76,0.67c-1.14,0-2.2-0.21-3.18-0.63c-0.98-0.42-1.83-1.03-2.55-1.83
			c-0.72-0.8-1.29-1.78-1.7-2.94s-0.62-2.49-0.62-3.98c0-1.36,0.19-2.61,0.57-3.76c0.38-1.15,0.93-2.14,1.66-2.98
			c0.73-0.83,1.62-1.48,2.69-1.95c1.07-0.47,2.29-0.7,3.67-0.7c1.27,0,2.4,0.21,3.38,0.62c0.98,0.41,1.85,1,2.61,1.75
			L-386.09,112.08z"/>
		<path class="st1" d="M-376.19,127.36c-1.44,0-2.55-0.4-3.32-1.21c-0.77-0.8-1.16-1.96-1.16-3.47v-11.16h-2.2
			c-0.19,0-0.35-0.06-0.49-0.17c-0.13-0.11-0.2-0.29-0.2-0.53v-1.28l2.99-0.38l0.74-5.63c0.02-0.18,0.1-0.33,0.23-0.44
			s0.3-0.17,0.5-0.17h1.62v6.28h5.22v2.32h-5.22v10.94c0,0.77,0.19,1.34,0.56,1.71s0.85,0.56,1.44,0.56c0.34,0,0.63-0.04,0.87-0.14
			c0.25-0.09,0.46-0.19,0.64-0.3c0.18-0.11,0.33-0.21,0.46-0.3c0.13-0.09,0.24-0.14,0.33-0.14c0.17,0,0.32,0.1,0.45,0.31l0.94,1.53
			c-0.55,0.52-1.22,0.92-2,1.22C-374.55,127.22-375.36,127.36-376.19,127.36z"/>
		<path class="st1" d="M-365.51,108.84v11.63c0,1.38,0.32,2.45,0.95,3.2c0.64,0.76,1.6,1.13,2.88,1.13c0.94,0,1.82-0.22,2.65-0.67
			c0.83-0.44,1.59-1.06,2.29-1.85v-13.45h3.2v18.23h-1.91c-0.46,0-0.74-0.22-0.86-0.67l-0.25-1.96c-0.79,0.88-1.68,1.58-2.66,2.11
			c-0.98,0.53-2.11,0.8-3.38,0.8c-1,0-1.88-0.17-2.64-0.5c-0.76-0.33-1.4-0.79-1.92-1.4c-0.52-0.6-0.9-1.33-1.16-2.18
			s-0.39-1.79-0.39-2.83v-11.63H-365.51z"/>
		<path class="st1" d="M-348.27,127.07v-18.23h1.84c0.35,0,0.59,0.07,0.72,0.2c0.13,0.13,0.22,0.36,0.27,0.68l0.22,2.84
			c0.62-1.27,1.4-2.27,2.31-2.98s1.99-1.07,3.23-1.07c0.5,0,0.96,0.06,1.37,0.17c0.41,0.11,0.79,0.27,1.13,0.48l-0.41,2.39
			c-0.08,0.3-0.27,0.45-0.56,0.45c-0.17,0-0.43-0.06-0.77-0.17c-0.35-0.11-0.83-0.17-1.46-0.17c-1.12,0-2.05,0.32-2.8,0.97
			s-1.38,1.59-1.88,2.83v11.61H-348.27z"/>
		<path class="st1" d="M-326.54,108.55c1.09,0,2.1,0.18,3.02,0.55c0.92,0.37,1.72,0.89,2.39,1.58c0.67,0.69,1.2,1.54,1.58,2.56
			c0.38,1.01,0.57,2.17,0.57,3.46c0,0.5-0.05,0.84-0.16,1.01c-0.11,0.17-0.31,0.25-0.61,0.25h-12.13c0.02,1.15,0.18,2.15,0.47,3.01
			s0.68,1.56,1.19,2.13c0.5,0.57,1.1,1,1.8,1.28c0.7,0.28,1.48,0.42,2.34,0.42c0.8,0,1.5-0.09,2.08-0.28s1.08-0.39,1.5-0.6
			c0.42-0.22,0.77-0.42,1.05-0.6s0.53-0.28,0.73-0.28c0.26,0,0.47,0.1,0.61,0.31l0.9,1.17c-0.4,0.48-0.87,0.9-1.42,1.25
			c-0.55,0.35-1.14,0.65-1.77,0.87c-0.63,0.23-1.28,0.4-1.95,0.51c-0.67,0.11-1.34,0.17-2,0.17c-1.26,0-2.42-0.21-3.48-0.64
			c-1.06-0.43-1.98-1.05-2.75-1.87c-0.77-0.82-1.38-1.84-1.81-3.05c-0.43-1.21-0.65-2.6-0.65-4.18c0-1.27,0.2-2.46,0.58-3.56
			s0.95-2.06,1.68-2.87c0.73-0.81,1.63-1.45,2.68-1.91C-329.05,108.78-327.86,108.55-326.54,108.55z M-326.47,110.91
			c-1.55,0-2.77,0.45-3.65,1.34c-0.89,0.89-1.44,2.13-1.66,3.72h9.92c0-0.74-0.1-1.42-0.31-2.04s-0.5-1.15-0.9-1.6
			c-0.4-0.45-0.88-0.8-1.45-1.04C-325.09,111.03-325.74,110.91-326.47,110.91z"/>
	</g>
	<path class="st2" d="M-194.77,165.14c-3.66,0.56-7.41,0.86-11.23,0.86c-40.32,0-73-32.68-73-73s32.68-73,73-73
		c2.45,0,4.88,0.12,7.27,0.36"/>
	<path class="st2" d="M-130.93,138.65c-13.39,16.39-33.75,26.85-56.57,26.85c-40.32,0-73-32.68-73-73s32.68-73,73-73s73,32.68,73,73
		c0,1.85-0.07,3.69-0.2,5.5"/>
	<g>
		<path class="st3" d="M-209.38,70.99c0,1.93-0.31,3.71-0.92,5.32c-0.61,1.61-1.48,3-2.59,4.17c-1.12,1.16-2.46,2.07-4.02,2.71
			s-3.3,0.96-5.19,0.96s-3.62-0.32-5.18-0.96c-1.56-0.64-2.9-1.54-4.01-2.71s-1.98-2.55-2.59-4.17c-0.61-1.61-0.92-3.39-0.92-5.32
			c0-1.93,0.31-3.7,0.92-5.32c0.61-1.61,1.48-3.01,2.59-4.18c1.12-1.17,2.45-2.08,4.01-2.73c1.56-0.65,3.29-0.97,5.18-0.97
			s3.63,0.32,5.19,0.97s2.91,1.56,4.02,2.73c1.12,1.17,1.98,2.56,2.59,4.18C-209.69,67.28-209.38,69.05-209.38,70.99z
			 M-212.97,70.99c0-1.58-0.22-3.01-0.65-4.27c-0.43-1.26-1.04-2.33-1.84-3.2c-0.79-0.87-1.75-1.54-2.88-2.01
			c-1.13-0.47-2.39-0.7-3.78-0.7c-1.38,0-2.63,0.23-3.76,0.7c-1.13,0.47-2.09,1.14-2.89,2.01c-0.8,0.87-1.41,1.94-1.84,3.2
			c-0.43,1.26-0.65,2.68-0.65,4.27s0.22,3,0.65,4.26c0.43,1.25,1.05,2.32,1.84,3.19s1.76,1.54,2.89,2s2.38,0.69,3.76,0.69
			c1.39,0,2.65-0.23,3.78-0.69s2.09-1.13,2.88-2s1.4-1.93,1.84-3.19C-213.18,73.99-212.97,72.57-212.97,70.99z"/>
		<path class="st3" d="M-184.15,83.87h-2.7c-0.31,0-0.56-0.08-0.76-0.23s-0.34-0.35-0.43-0.59l-2.41-6.23h-11.57l-2.41,6.23
			c-0.08,0.22-0.23,0.41-0.43,0.58c-0.2,0.17-0.46,0.25-0.76,0.25h-2.7l10.31-25.79h3.55L-184.15,83.87z M-201.05,74.3h9.63
			l-4.05-10.49c-0.26-0.65-0.52-1.46-0.77-2.43c-0.13,0.49-0.26,0.94-0.39,1.36s-0.25,0.78-0.37,1.09L-201.05,74.3z"/>
		<path class="st3" d="M-159.98,83.87h-3.51V72.14h-13.9v11.74h-3.51V58.08h3.51v11.5h13.9v-11.5h3.51V83.87z"/>
		<path class="st3" d="M-212.12,127.07h-2.7c-0.31,0-0.56-0.08-0.76-0.23s-0.34-0.35-0.43-0.59l-2.41-6.23h-11.57l-2.41,6.23
			c-0.08,0.22-0.23,0.41-0.43,0.58c-0.2,0.17-0.46,0.25-0.76,0.25h-2.7l10.31-25.79h3.55L-212.12,127.07z M-229.02,117.5h9.63
			l-4.05-10.49c-0.26-0.65-0.52-1.46-0.77-2.43c-0.13,0.49-0.26,0.94-0.39,1.36s-0.25,0.78-0.37,1.09L-229.02,117.5z"/>
		<path class="st3" d="M-209.37,127.07v-18.23h1.84c0.35,0,0.59,0.07,0.72,0.2c0.13,0.13,0.22,0.36,0.27,0.68l0.22,2.84
			c0.62-1.27,1.4-2.27,2.31-2.98s2-1.07,3.23-1.07c0.5,0,0.96,0.06,1.37,0.17c0.41,0.11,0.79,0.27,1.13,0.48l-0.41,2.39
			c-0.08,0.3-0.27,0.45-0.56,0.45c-0.17,0-0.43-0.06-0.77-0.17c-0.35-0.11-0.83-0.17-1.46-0.17c-1.12,0-2.05,0.32-2.8,0.97
			s-1.38,1.59-1.88,2.83v11.61H-209.37z"/>
		<path class="st3" d="M-182.42,112.08c-0.1,0.13-0.19,0.23-0.29,0.31s-0.23,0.11-0.41,0.11c-0.18,0-0.38-0.07-0.58-0.23
			c-0.21-0.15-0.48-0.31-0.8-0.49c-0.32-0.18-0.72-0.35-1.18-0.5s-1.03-0.23-1.7-0.23c-0.89,0-1.67,0.16-2.36,0.48
			c-0.68,0.32-1.26,0.78-1.72,1.38s-0.81,1.33-1.04,2.18s-0.35,1.81-0.35,2.86c0,1.1,0.13,2.08,0.38,2.94
			c0.25,0.86,0.61,1.58,1.06,2.16s1.01,1.03,1.67,1.33c0.65,0.31,1.39,0.46,2.21,0.46c0.78,0,1.42-0.09,1.93-0.28
			c0.5-0.19,0.92-0.39,1.26-0.62s0.61-0.44,0.83-0.62c0.22-0.19,0.43-0.28,0.65-0.28c0.28,0,0.48,0.1,0.61,0.31l0.9,1.17
			c-0.79,0.97-1.78,1.68-2.97,2.13c-1.19,0.45-2.44,0.67-3.76,0.67c-1.14,0-2.2-0.21-3.18-0.63c-0.98-0.42-1.83-1.03-2.55-1.83
			c-0.72-0.8-1.29-1.78-1.7-2.94s-0.62-2.49-0.62-3.98c0-1.36,0.19-2.61,0.57-3.76c0.38-1.15,0.93-2.14,1.66-2.98
			c0.73-0.83,1.62-1.48,2.69-1.95c1.07-0.47,2.29-0.7,3.67-0.7c1.27,0,2.4,0.21,3.38,0.62s1.85,1,2.61,1.75L-182.42,112.08z"/>
		<path class="st3" d="M-178.05,127.07v-26.51h3.2v10.73c0.78-0.83,1.64-1.49,2.59-1.99s2.04-0.75,3.28-0.75c1,0,1.87,0.17,2.64,0.5
			s1.4,0.8,1.91,1.4c0.51,0.61,0.9,1.33,1.16,2.19c0.26,0.85,0.4,1.79,0.4,2.83v11.61h-3.2v-11.61c0-1.38-0.31-2.45-0.95-3.21
			c-0.63-0.76-1.59-1.14-2.89-1.14c-0.95,0-1.83,0.23-2.66,0.68c-0.82,0.46-1.58,1.07-2.28,1.85v13.43H-178.05z"/>
		<path class="st3" d="M-153.75,103.12c0,0.31-0.06,0.6-0.19,0.87s-0.29,0.51-0.5,0.72c-0.21,0.21-0.45,0.38-0.73,0.5
			c-0.28,0.12-0.57,0.18-0.88,0.18s-0.6-0.06-0.87-0.18c-0.27-0.12-0.51-0.28-0.72-0.5c-0.21-0.21-0.38-0.45-0.5-0.72
			c-0.12-0.27-0.18-0.56-0.18-0.87s0.06-0.61,0.18-0.89c0.12-0.28,0.28-0.53,0.5-0.74c0.21-0.21,0.45-0.38,0.72-0.5
			c0.27-0.12,0.56-0.18,0.87-0.18s0.61,0.06,0.88,0.18c0.28,0.12,0.52,0.29,0.73,0.5c0.21,0.21,0.38,0.46,0.5,0.74
			C-153.81,102.51-153.75,102.8-153.75,103.12z M-154.47,108.84v18.23h-3.2v-18.23H-154.47z"/>
		<path class="st3" d="M-143.29,127.36c-1.44,0-2.55-0.4-3.32-1.21c-0.77-0.8-1.16-1.96-1.16-3.47v-11.16h-2.2
			c-0.19,0-0.35-0.06-0.49-0.17c-0.13-0.11-0.2-0.29-0.2-0.53v-1.28l2.99-0.38l0.74-5.63c0.02-0.18,0.1-0.33,0.23-0.44
			c0.13-0.11,0.3-0.17,0.5-0.17h1.62v6.28h5.22v2.32h-5.22v10.94c0,0.77,0.19,1.34,0.56,1.71c0.37,0.37,0.85,0.56,1.44,0.56
			c0.34,0,0.63-0.04,0.87-0.14c0.25-0.09,0.46-0.19,0.64-0.3c0.18-0.11,0.33-0.21,0.46-0.3c0.12-0.09,0.24-0.14,0.33-0.14
			c0.17,0,0.32,0.1,0.45,0.31l0.94,1.53c-0.55,0.52-1.22,0.92-2,1.22C-141.66,127.22-142.46,127.36-143.29,127.36z"/>
		<path class="st3" d="M-128.17,108.55c1.09,0,2.1,0.18,3.02,0.55c0.92,0.37,1.72,0.89,2.39,1.58c0.67,0.69,1.2,1.54,1.58,2.56
			c0.38,1.01,0.57,2.17,0.57,3.46c0,0.5-0.05,0.84-0.16,1.01c-0.11,0.17-0.31,0.25-0.61,0.25h-12.13c0.02,1.15,0.18,2.15,0.47,3.01
			s0.68,1.56,1.19,2.13c0.5,0.57,1.1,1,1.8,1.28c0.7,0.28,1.48,0.42,2.34,0.42c0.8,0,1.5-0.09,2.08-0.28s1.08-0.39,1.5-0.6
			c0.42-0.22,0.77-0.42,1.05-0.6s0.53-0.28,0.73-0.28c0.26,0,0.47,0.1,0.61,0.31l0.9,1.17c-0.4,0.48-0.87,0.9-1.42,1.25
			c-0.55,0.35-1.14,0.65-1.77,0.87c-0.63,0.23-1.28,0.4-1.95,0.51c-0.67,0.11-1.34,0.17-2,0.17c-1.26,0-2.42-0.21-3.48-0.64
			s-1.98-1.05-2.75-1.87c-0.77-0.82-1.38-1.84-1.81-3.05c-0.43-1.21-0.65-2.6-0.65-4.18c0-1.27,0.2-2.46,0.58-3.56
			s0.95-2.06,1.68-2.87s1.63-1.45,2.68-1.91C-130.68,108.78-129.49,108.55-128.17,108.55z M-128.1,110.91
			c-1.55,0-2.77,0.45-3.65,1.34c-0.89,0.89-1.44,2.13-1.66,3.72h9.92c0-0.74-0.1-1.42-0.31-2.04s-0.5-1.15-0.9-1.6
			c-0.4-0.45-0.88-0.8-1.45-1.04C-126.71,111.03-127.37,110.91-128.1,110.91z"/>
		<path class="st3" d="M-104.09,112.08c-0.1,0.13-0.19,0.23-0.29,0.31c-0.1,0.07-0.23,0.11-0.41,0.11c-0.18,0-0.38-0.07-0.58-0.23
			c-0.21-0.15-0.48-0.31-0.8-0.49c-0.32-0.18-0.72-0.35-1.18-0.5s-1.03-0.23-1.7-0.23c-0.89,0-1.67,0.16-2.36,0.48
			c-0.68,0.32-1.26,0.78-1.72,1.38c-0.46,0.6-0.81,1.33-1.04,2.18c-0.23,0.85-0.35,1.81-0.35,2.86c0,1.1,0.13,2.08,0.38,2.94
			c0.25,0.86,0.61,1.58,1.06,2.16c0.46,0.58,1.01,1.03,1.67,1.33c0.65,0.31,1.39,0.46,2.2,0.46c0.78,0,1.42-0.09,1.93-0.28
			c0.5-0.19,0.92-0.39,1.26-0.62s0.61-0.44,0.83-0.62s0.43-0.28,0.65-0.28c0.28,0,0.48,0.1,0.61,0.31l0.9,1.17
			c-0.79,0.97-1.78,1.68-2.97,2.13c-1.19,0.45-2.44,0.67-3.76,0.67c-1.14,0-2.2-0.21-3.18-0.63c-0.98-0.42-1.83-1.03-2.55-1.83
			c-0.72-0.8-1.29-1.78-1.7-2.94s-0.62-2.49-0.62-3.98c0-1.36,0.19-2.61,0.57-3.76c0.38-1.15,0.93-2.14,1.66-2.98
			c0.73-0.83,1.62-1.48,2.69-1.95c1.07-0.47,2.29-0.7,3.67-0.7c1.27,0,2.4,0.21,3.38,0.62c0.98,0.41,1.85,1,2.61,1.75
			L-104.09,112.08z"/>
		<path class="st3" d="M-94.19,127.36c-1.44,0-2.55-0.4-3.32-1.21c-0.77-0.8-1.16-1.96-1.16-3.47v-11.16h-2.2
			c-0.19,0-0.35-0.06-0.49-0.17c-0.13-0.11-0.2-0.29-0.2-0.53v-1.28l2.99-0.38l0.74-5.63c0.02-0.18,0.1-0.33,0.23-0.44
			s0.3-0.17,0.5-0.17h1.62v6.28h5.22v2.32h-5.22v10.94c0,0.77,0.19,1.34,0.56,1.71s0.85,0.56,1.44,0.56c0.34,0,0.63-0.04,0.87-0.14
			c0.25-0.09,0.46-0.19,0.64-0.3c0.18-0.11,0.33-0.21,0.46-0.3c0.13-0.09,0.24-0.14,0.33-0.14c0.17,0,0.32,0.1,0.45,0.31l0.94,1.53
			c-0.55,0.52-1.22,0.92-2,1.22C-92.55,127.22-93.36,127.36-94.19,127.36z"/>
		<path class="st3" d="M-83.51,108.84v11.63c0,1.38,0.32,2.45,0.95,3.2c0.64,0.76,1.6,1.13,2.88,1.13c0.94,0,1.82-0.22,2.65-0.67
			c0.83-0.44,1.59-1.06,2.29-1.85v-13.45h3.2v18.23h-1.91c-0.46,0-0.74-0.22-0.86-0.67l-0.25-1.96c-0.79,0.88-1.68,1.58-2.66,2.11
			c-0.98,0.53-2.11,0.8-3.38,0.8c-1,0-1.88-0.17-2.64-0.5c-0.76-0.33-1.4-0.79-1.92-1.4c-0.52-0.6-0.9-1.33-1.16-2.18
			s-0.39-1.79-0.39-2.83v-11.63H-83.51z"/>
		<path class="st3" d="M-66.27,127.07v-18.23h1.84c0.35,0,0.59,0.07,0.72,0.2c0.13,0.13,0.22,0.36,0.27,0.68l0.22,2.84
			c0.62-1.27,1.4-2.27,2.31-2.98s1.99-1.07,3.23-1.07c0.5,0,0.96,0.06,1.37,0.17c0.41,0.11,0.79,0.27,1.13,0.48l-0.41,2.39
			c-0.08,0.3-0.27,0.45-0.56,0.45c-0.17,0-0.43-0.06-0.77-0.17c-0.35-0.11-0.83-0.17-1.46-0.17c-1.12,0-2.05,0.32-2.8,0.97
			s-1.38,1.59-1.88,2.83v11.61H-66.27z"/>
		<path class="st3" d="M-44.54,108.55c1.09,0,2.1,0.18,3.02,0.55c0.92,0.37,1.72,0.89,2.39,1.58c0.67,0.69,1.2,1.54,1.58,2.56
			c0.38,1.01,0.57,2.17,0.57,3.46c0,0.5-0.05,0.84-0.16,1.01c-0.11,0.17-0.31,0.25-0.61,0.25h-12.13c0.02,1.15,0.18,2.15,0.47,3.01
			s0.68,1.56,1.19,2.13c0.5,0.57,1.1,1,1.8,1.28c0.7,0.28,1.48,0.42,2.34,0.42c0.8,0,1.5-0.09,2.08-0.28s1.08-0.39,1.5-0.6
			c0.42-0.22,0.77-0.42,1.05-0.6s0.53-0.28,0.73-0.28c0.26,0,0.47,0.1,0.61,0.31l0.9,1.17c-0.4,0.48-0.87,0.9-1.42,1.25
			c-0.55,0.35-1.14,0.65-1.77,0.87c-0.63,0.23-1.28,0.4-1.95,0.51c-0.67,0.11-1.34,0.17-2,0.17c-1.26,0-2.42-0.21-3.48-0.64
			c-1.06-0.43-1.98-1.05-2.75-1.87c-0.77-0.82-1.38-1.84-1.81-3.05c-0.43-1.21-0.65-2.6-0.65-4.18c0-1.27,0.2-2.46,0.58-3.56
			s0.95-2.06,1.68-2.87c0.73-0.81,1.63-1.45,2.68-1.91C-47.05,108.78-45.86,108.55-44.54,108.55z M-44.47,110.91
			c-1.55,0-2.77,0.45-3.65,1.34c-0.89,0.89-1.44,2.13-1.66,3.72h9.92c0-0.74-0.1-1.42-0.31-2.04s-0.5-1.15-0.9-1.6
			c-0.4-0.45-0.88-0.8-1.45-1.04C-43.09,111.03-43.74,110.91-44.47,110.91z"/>
	</g>
	<g>
		<path class="st1" d="M61.43,69.98c0,1.93-0.31,3.71-0.92,5.32c-0.61,1.61-1.48,3-2.59,4.17c-1.12,1.16-2.46,2.07-4.02,2.71
			s-3.3,0.96-5.19,0.96s-3.62-0.32-5.18-0.96c-1.56-0.64-2.9-1.54-4.01-2.71s-1.98-2.55-2.59-4.17C36.3,73.69,36,71.91,36,69.98
			c0-1.93,0.31-3.7,0.92-5.32c0.61-1.61,1.48-3.01,2.59-4.18c1.12-1.17,2.45-2.08,4.01-2.73c1.56-0.65,3.29-0.97,5.18-0.97
			s3.63,0.32,5.19,0.97s2.91,1.56,4.02,2.73c1.12,1.17,1.98,2.56,2.59,4.18C61.13,66.28,61.43,68.05,61.43,69.98z M57.85,69.98
			c0-1.58-0.22-3.01-0.65-4.27c-0.43-1.26-1.04-2.33-1.84-3.2c-0.79-0.87-1.75-1.54-2.88-2.01c-1.13-0.47-2.39-0.7-3.78-0.7
			c-1.38,0-2.63,0.23-3.76,0.7c-1.13,0.47-2.09,1.14-2.89,2.01c-0.8,0.87-1.41,1.94-1.84,3.2c-0.43,1.26-0.65,2.68-0.65,4.27
			s0.22,3,0.65,4.26c0.43,1.25,1.05,2.32,1.84,3.19s1.76,1.54,2.89,2s2.38,0.69,3.76,0.69c1.39,0,2.65-0.23,3.78-0.69
			s2.09-1.13,2.88-2s1.4-1.93,1.84-3.19C57.63,72.99,57.85,71.57,57.85,69.98z"/>
		<path class="st1" d="M86.67,82.87h-2.7c-0.31,0-0.56-0.08-0.76-0.23s-0.34-0.35-0.43-0.59l-2.41-6.23H68.79l-2.41,6.23
			c-0.08,0.22-0.23,0.41-0.43,0.58c-0.2,0.17-0.46,0.25-0.76,0.25h-2.7l10.31-25.79h3.55L86.67,82.87z M69.77,73.29h9.63L75.35,62.8
			c-0.26-0.65-0.52-1.46-0.77-2.43c-0.13,0.49-0.26,0.94-0.39,1.36s-0.25,0.78-0.37,1.09L69.77,73.29z"/>
		<path class="st1" d="M110.84,82.87h-3.51V71.14h-13.9v11.74h-3.51V57.08h3.51v11.5h13.9v-11.5h3.51V82.87z"/>
		<path class="st1" d="M58.7,126.07H56c-0.31,0-0.56-0.08-0.76-0.23s-0.34-0.35-0.43-0.59l-2.41-6.23H40.82l-2.41,6.23
			c-0.08,0.22-0.23,0.41-0.43,0.58c-0.2,0.17-0.46,0.25-0.76,0.25h-2.7l10.31-25.79h3.55L58.7,126.07z M41.79,116.49h9.63L47.37,106
			c-0.26-0.65-0.52-1.46-0.77-2.43c-0.13,0.49-0.26,0.94-0.39,1.36s-0.25,0.78-0.37,1.09L41.79,116.49z"/>
		<path class="st1" d="M61.45,126.07v-18.23h1.84c0.35,0,0.59,0.07,0.72,0.2c0.13,0.13,0.22,0.36,0.27,0.68l0.22,2.84
			c0.62-1.27,1.4-2.27,2.31-2.98s2-1.07,3.23-1.07c0.5,0,0.96,0.06,1.37,0.17c0.41,0.11,0.79,0.27,1.13,0.48l-0.41,2.39
			c-0.08,0.3-0.27,0.45-0.56,0.45c-0.17,0-0.43-0.06-0.77-0.17c-0.35-0.11-0.83-0.17-1.46-0.17c-1.12,0-2.05,0.32-2.8,0.97
			s-1.38,1.59-1.88,2.83v11.61H61.45z"/>
		<path class="st1" d="M88.4,111.08c-0.1,0.13-0.19,0.23-0.29,0.31s-0.23,0.11-0.41,0.11c-0.18,0-0.38-0.07-0.58-0.23
			c-0.21-0.15-0.48-0.31-0.8-0.49c-0.32-0.18-0.72-0.35-1.18-0.5s-1.03-0.23-1.7-0.23c-0.89,0-1.67,0.16-2.36,0.48
			c-0.68,0.32-1.26,0.78-1.72,1.38s-0.81,1.33-1.04,2.18s-0.35,1.81-0.35,2.86c0,1.1,0.13,2.08,0.38,2.94
			c0.25,0.86,0.61,1.58,1.06,2.16s1.01,1.03,1.67,1.33c0.65,0.31,1.39,0.46,2.21,0.46c0.78,0,1.42-0.09,1.93-0.28
			c0.5-0.19,0.92-0.39,1.26-0.62s0.61-0.44,0.83-0.62c0.22-0.19,0.43-0.28,0.65-0.28c0.28,0,0.48,0.1,0.61,0.31l0.9,1.17
			c-0.79,0.97-1.78,1.68-2.97,2.13c-1.19,0.45-2.44,0.67-3.76,0.67c-1.14,0-2.2-0.21-3.18-0.63c-0.98-0.42-1.83-1.03-2.55-1.83
			c-0.72-0.8-1.29-1.78-1.7-2.94s-0.62-2.49-0.62-3.98c0-1.36,0.19-2.61,0.57-3.76c0.38-1.15,0.93-2.14,1.66-2.98
			c0.73-0.83,1.62-1.48,2.69-1.95c1.07-0.47,2.29-0.7,3.67-0.7c1.27,0,2.4,0.21,3.38,0.62s1.85,1,2.61,1.75L88.4,111.08z"/>
		<path class="st1" d="M92.77,126.07V99.56h3.2v10.73c0.78-0.83,1.64-1.49,2.59-1.99s2.04-0.75,3.28-0.75c1,0,1.87,0.17,2.64,0.5
			s1.4,0.8,1.91,1.4c0.51,0.61,0.9,1.33,1.16,2.19c0.26,0.85,0.4,1.79,0.4,2.83v11.61h-3.2v-11.61c0-1.38-0.31-2.45-0.95-3.21
			c-0.63-0.76-1.59-1.14-2.89-1.14c-0.95,0-1.83,0.23-2.66,0.68c-0.82,0.46-1.58,1.07-2.28,1.85v13.43H92.77z"/>
		<path class="st1" d="M117.07,102.11c0,0.31-0.06,0.6-0.19,0.87s-0.29,0.51-0.5,0.72c-0.21,0.21-0.45,0.38-0.73,0.5
			c-0.28,0.12-0.57,0.18-0.88,0.18s-0.6-0.06-0.87-0.18c-0.27-0.12-0.51-0.28-0.72-0.5c-0.21-0.21-0.38-0.45-0.5-0.72
			c-0.12-0.27-0.18-0.56-0.18-0.87s0.06-0.61,0.18-0.89c0.12-0.28,0.28-0.53,0.5-0.74c0.21-0.21,0.45-0.38,0.72-0.5
			c0.27-0.12,0.56-0.18,0.87-0.18s0.61,0.06,0.88,0.18c0.28,0.12,0.52,0.29,0.73,0.5c0.21,0.21,0.38,0.46,0.5,0.74
			C117.01,101.5,117.07,101.8,117.07,102.11z M116.35,107.84v18.23h-3.2v-18.23H116.35z"/>
		<path class="st1" d="M127.53,126.36c-1.44,0-2.55-0.4-3.32-1.21c-0.77-0.8-1.16-1.96-1.16-3.47v-11.16h-2.2
			c-0.19,0-0.35-0.06-0.49-0.17c-0.13-0.11-0.2-0.29-0.2-0.53v-1.28l2.99-0.38l0.74-5.63c0.02-0.18,0.1-0.33,0.23-0.44
			c0.13-0.11,0.3-0.17,0.5-0.17h1.62v6.28h5.22v2.32h-5.22v10.94c0,0.77,0.19,1.34,0.56,1.71c0.37,0.37,0.85,0.56,1.44,0.56
			c0.34,0,0.63-0.04,0.87-0.14c0.25-0.09,0.46-0.19,0.64-0.3c0.18-0.11,0.33-0.21,0.46-0.3c0.12-0.09,0.24-0.14,0.33-0.14
			c0.17,0,0.32,0.1,0.45,0.31l0.94,1.53c-0.55,0.52-1.22,0.92-2,1.22C129.16,126.21,128.36,126.36,127.53,126.36z"/>
		<path class="st1" d="M142.65,107.55c1.09,0,2.1,0.18,3.02,0.55c0.92,0.37,1.72,0.89,2.39,1.58c0.67,0.69,1.2,1.54,1.58,2.56
			c0.38,1.01,0.57,2.17,0.57,3.46c0,0.5-0.05,0.84-0.16,1.01c-0.11,0.17-0.31,0.25-0.61,0.25H137.3c0.02,1.15,0.18,2.15,0.47,3.01
			s0.68,1.56,1.19,2.13c0.5,0.57,1.1,1,1.8,1.28c0.7,0.28,1.48,0.42,2.34,0.42c0.8,0,1.5-0.09,2.08-0.28s1.08-0.39,1.5-0.6
			c0.42-0.22,0.77-0.42,1.05-0.6s0.53-0.28,0.73-0.28c0.26,0,0.47,0.1,0.61,0.31l0.9,1.17c-0.4,0.48-0.87,0.9-1.42,1.25
			c-0.55,0.35-1.14,0.65-1.77,0.87c-0.63,0.23-1.28,0.4-1.95,0.51c-0.67,0.11-1.34,0.17-2,0.17c-1.26,0-2.42-0.21-3.48-0.64
			s-1.98-1.05-2.75-1.87c-0.77-0.82-1.38-1.84-1.81-3.05c-0.43-1.21-0.65-2.6-0.65-4.18c0-1.27,0.2-2.46,0.58-3.56
			s0.95-2.06,1.68-2.87s1.63-1.45,2.68-1.91C140.14,107.78,141.33,107.55,142.65,107.55z M142.72,109.91
			c-1.55,0-2.77,0.45-3.65,1.34c-0.89,0.89-1.44,2.13-1.66,3.72h9.92c0-0.74-0.1-1.42-0.31-2.04s-0.5-1.15-0.9-1.6
			c-0.4-0.45-0.88-0.8-1.45-1.04C144.1,110.03,143.45,109.91,142.72,109.91z"/>
		<path class="st1" d="M166.73,111.08c-0.1,0.13-0.19,0.23-0.29,0.31c-0.1,0.07-0.23,0.11-0.41,0.11c-0.18,0-0.38-0.07-0.58-0.23
			c-0.21-0.15-0.48-0.31-0.8-0.49c-0.32-0.18-0.72-0.35-1.18-0.5s-1.03-0.23-1.7-0.23c-0.89,0-1.67,0.16-2.36,0.48
			c-0.68,0.32-1.26,0.78-1.72,1.38c-0.46,0.6-0.81,1.33-1.04,2.18c-0.23,0.85-0.35,1.81-0.35,2.86c0,1.1,0.13,2.08,0.38,2.94
			c0.25,0.86,0.61,1.58,1.06,2.16c0.46,0.58,1.01,1.03,1.67,1.33c0.65,0.31,1.39,0.46,2.2,0.46c0.78,0,1.42-0.09,1.93-0.28
			c0.5-0.19,0.92-0.39,1.26-0.62s0.61-0.44,0.83-0.62s0.43-0.28,0.65-0.28c0.28,0,0.48,0.1,0.61,0.31l0.9,1.17
			c-0.79,0.97-1.78,1.68-2.97,2.13c-1.19,0.45-2.44,0.67-3.76,0.67c-1.14,0-2.2-0.21-3.18-0.63c-0.98-0.42-1.83-1.03-2.55-1.83
			c-0.72-0.8-1.29-1.78-1.7-2.94s-0.62-2.49-0.62-3.98c0-1.36,0.19-2.61,0.57-3.76c0.38-1.15,0.93-2.14,1.66-2.98
			c0.73-0.83,1.62-1.48,2.69-1.95c1.07-0.47,2.29-0.7,3.67-0.7c1.27,0,2.4,0.21,3.38,0.62c0.98,0.41,1.85,1,2.61,1.75L166.73,111.08
			z"/>
		<path class="st1" d="M176.63,126.36c-1.44,0-2.55-0.4-3.32-1.21c-0.77-0.8-1.16-1.96-1.16-3.47v-11.16h-2.2
			c-0.19,0-0.35-0.06-0.49-0.17c-0.13-0.11-0.2-0.29-0.2-0.53v-1.28l2.99-0.38l0.74-5.63c0.02-0.18,0.1-0.33,0.23-0.44
			s0.3-0.17,0.5-0.17h1.62v6.28h5.22v2.32h-5.22v10.94c0,0.77,0.19,1.34,0.56,1.71s0.85,0.56,1.44,0.56c0.34,0,0.63-0.04,0.87-0.14
			c0.25-0.09,0.46-0.19,0.64-0.3c0.18-0.11,0.33-0.21,0.46-0.3c0.13-0.09,0.24-0.14,0.33-0.14c0.17,0,0.32,0.1,0.45,0.31l0.94,1.53
			c-0.55,0.52-1.22,0.92-2,1.22C178.26,126.21,177.46,126.36,176.63,126.36z"/>
		<path class="st1" d="M187.3,107.84v11.63c0,1.38,0.32,2.45,0.95,3.2c0.64,0.76,1.6,1.13,2.88,1.13c0.94,0,1.82-0.22,2.65-0.67
			c0.83-0.44,1.59-1.06,2.29-1.85v-13.45h3.2v18.23h-1.91c-0.46,0-0.74-0.22-0.86-0.67l-0.25-1.96c-0.79,0.88-1.68,1.58-2.66,2.11
			c-0.98,0.53-2.11,0.8-3.38,0.8c-1,0-1.88-0.17-2.64-0.5c-0.76-0.33-1.4-0.79-1.92-1.4c-0.52-0.6-0.9-1.33-1.16-2.18
			s-0.39-1.79-0.39-2.83v-11.63H187.3z"/>
		<path class="st1" d="M204.55,126.07v-18.23h1.84c0.35,0,0.59,0.07,0.72,0.2c0.13,0.13,0.22,0.36,0.27,0.68l0.22,2.84
			c0.62-1.27,1.4-2.27,2.31-2.98s1.99-1.07,3.23-1.07c0.5,0,0.96,0.06,1.37,0.17c0.41,0.11,0.79,0.27,1.13,0.48l-0.41,2.39
			c-0.08,0.3-0.27,0.45-0.56,0.45c-0.17,0-0.43-0.06-0.77-0.17c-0.35-0.11-0.83-0.17-1.46-0.17c-1.12,0-2.05,0.32-2.8,0.97
			s-1.38,1.59-1.88,2.83v11.61H204.55z"/>
		<path class="st1" d="M226.27,107.55c1.09,0,2.1,0.18,3.02,0.55c0.92,0.37,1.72,0.89,2.39,1.58c0.67,0.69,1.2,1.54,1.58,2.56
			c0.38,1.01,0.57,2.17,0.57,3.46c0,0.5-0.05,0.84-0.16,1.01c-0.11,0.17-0.31,0.25-0.61,0.25h-12.13c0.02,1.15,0.18,2.15,0.47,3.01
			s0.68,1.56,1.19,2.13c0.5,0.57,1.1,1,1.8,1.28c0.7,0.28,1.48,0.42,2.34,0.42c0.8,0,1.5-0.09,2.08-0.28s1.08-0.39,1.5-0.6
			c0.42-0.22,0.77-0.42,1.05-0.6s0.53-0.28,0.73-0.28c0.26,0,0.47,0.1,0.61,0.31l0.9,1.17c-0.4,0.48-0.87,0.9-1.42,1.25
			c-0.55,0.35-1.14,0.65-1.77,0.87c-0.63,0.23-1.28,0.4-1.95,0.51c-0.67,0.11-1.34,0.17-2,0.17c-1.26,0-2.42-0.21-3.48-0.64
			c-1.06-0.43-1.98-1.05-2.75-1.87c-0.77-0.82-1.38-1.84-1.81-3.05c-0.43-1.21-0.65-2.6-0.65-4.18c0-1.27,0.2-2.46,0.58-3.56
			s0.95-2.06,1.68-2.87c0.73-0.81,1.63-1.45,2.68-1.91C223.76,107.78,224.95,107.55,226.27,107.55z M226.34,109.91
			c-1.55,0-2.77,0.45-3.65,1.34c-0.89,0.89-1.44,2.13-1.66,3.72h9.92c0-0.74-0.1-1.42-0.31-2.04s-0.5-1.15-0.9-1.6
			c-0.4-0.45-0.88-0.8-1.45-1.04C227.73,110.03,227.08,109.91,226.34,109.91z"/>
	</g>
</g>
<g id="fondo_negro">
</g>
<g id="logo_blanco">
</g>
</svg>
